name C:\Users\u0101727\Documents\MyRepositories\predictivesimulations\OpenSimModel\subject1\EMG\EMG_gait_23.mot
datacolumns 25
datarows 7
range 2.39600000 2.40200000
endheader
time	HamL_r	TA_r	PerL_r	GL_r	HamM_r	Sol_r	VL_r	VM_r	PerB_l	TA_l	PerL_l	GL_l	GM_l	Sol_l	VL_l	VM_l	AddL_l	RF_l	TFL_l	GluMed_l	HamL_l	HamM_l	GluMed_r	RF_r	
          2.39600000	          0.00538576	          0.00366422	          0.04030635	          0.00470525	          0.00510400	          0.06829290	          0.00390392	          0.00375177	          0.00857286	          0.05258048	          0.01654764	          0.00949029	          0.00852055	          0.00986730	          0.01353789	          0.01904077	          0.00760709	          0.00992730	          0.00565366	          0.00825983	          0.01722186	          0.03047830	          0.00313947	          0.00503644	
          2.39700000	          0.00534277	          0.00370035	          0.03981689	          0.00467757	          0.00512456	          0.06767216	          0.00386009	          0.00378960	          0.00864395	          0.05347483	          0.01654295	          0.00948658	          0.00852796	          0.00999218	          0.01369502	          0.01885576	          0.00763215	          0.00999948	          0.00561388	          0.00855672	          0.01717521	          0.03017604	          0.00315732	          0.00503448	
          2.39800000	          0.00530034	          0.00373626	          0.03932190	          0.00464988	          0.00514476	          0.06700748	          0.00381906	          0.00382822	          0.00871920	          0.05438581	          0.01654860	          0.00948775	          0.00854578	          0.01011742	          0.01386099	          0.01867219	          0.00766000	          0.01006771	          0.00557566	          0.00886863	          0.01713645	          0.02988709	          0.00317864	          0.00503168	
          2.39900000	          0.00525856	          0.00377189	          0.03882236	          0.00462201	          0.00516439	          0.06630036	          0.00378095	          0.00386754	          0.00879836	          0.05531320	          0.01656496	          0.00949432	          0.00857427	          0.01024292	          0.01403685	          0.01849142	          0.00769066	          0.01013176	          0.00553928	          0.00919601	          0.01710462	          0.02961152	          0.00320317	          0.00502806	
          2.40000000	          0.00521751	          0.00380714	          0.03831898	          0.00459381	          0.00518327	          0.06555170	          0.00374586	          0.00390747	          0.00888118	          0.05625741	          0.01659240	          0.00950683	          0.00861362	          0.01036856	          0.01422364	          0.01831460	          0.00772421	          0.01019150	          0.00550506	          0.00953940	          0.01707874	          0.02934985	          0.00323063	          0.00502364	
          2.40100000	          0.00517728	          0.00384196	          0.03781218	          0.00456512	          0.00520119	          0.06476190	          0.00371387	          0.00394792	          0.00896736	          0.05721948	          0.01663141	          0.00952581	          0.00866394	          0.01049420	          0.01442223	          0.01814276	          0.00776077	          0.01024678	          0.00547337	          0.00989931	          0.01705792	          0.02910276	          0.00326072	          0.00501847	
          2.40200000	          0.00513793	          0.00387633	          0.03730207	          0.00453588	          0.00521797	          0.06393121	          0.00368505	          0.00398882	          0.00905660	          0.05820050	          0.01668261	          0.00955180	          0.00872525	          0.01061970	          0.01463345	          0.01797699	          0.00780051	          0.01029741	          0.00544461	          0.01027618	          0.01704132	          0.02887086	          0.00329309	          0.00501260	
